<?xml version="1.0" ?><!DOCTYPE svg  PUBLIC '-//W3C//DTD SVG 1.1//EN'  'http://www.w3.org/Graphics/SVG/1.1/DTD/svg11.dtd'><svg height="512px" style="enable-background:new 0 0 512 512;" version="1.1" viewBox="0 0 512 512" width="512px" xml:space="preserve" xmlns="http://www.w3.org/2000/svg" xmlns:xlink="http://www.w3.org/1999/xlink"><g id="comp_x5F_339-trello"><g><path d="    M421.363,36.001H91.17c-30.446,0-55.098,24.652-55.098,55c-0.099,0,0-3.929,0,329.998c0,30.348,24.651,55,54.999,55h330.196    c30.249-0.197,54.704-24.749,54.704-55V91.001C476.068,60.751,451.613,36.198,421.363,36.001L421.363,36.001z M229.553,369.238    c-0.196,14.438-11.883,26.128-26.419,26.128h-81.223c-14.536,0.097-26.419-11.589-26.518-26.128V119.582    c0-14.537,11.784-26.42,26.419-26.42h81.419c14.536,0,26.42,11.785,26.42,26.42v249.656H229.553z M419.204,259.241    c0,14.536-11.786,26.419-26.421,26.419H313.23c-14.535,0-26.419-11.783-26.419-26.419V119.679    c0-14.535,11.785-26.419,26.32-26.419h79.651c14.536,0,26.421,11.785,26.421,26.419V259.241z" style="fill:none;stroke:#000000;stroke-width:20;stroke-linecap:round;stroke-linejoin:round;stroke-miterlimit:10;"/></g></g><g id="Layer_1"/></svg>