<?xml version="1.0" ?><!DOCTYPE svg  PUBLIC '-//W3C//DTD SVG 1.1//EN'  'http://www.w3.org/Graphics/SVG/1.1/DTD/svg11.dtd'><svg height="512px" style="enable-background:new 0 0 512 512;" version="1.1" viewBox="0 0 512 512" width="512px" xml:space="preserve" xmlns="http://www.w3.org/2000/svg" xmlns:xlink="http://www.w3.org/1999/xlink"><g id="_x31_70_x2C__Attachment_x2C__Binder_x2C__Clip_x2C__Paper"><path d="M478.649,149.063c-1.699-22.079-11.825-43.429-28.514-60.119   c-34.869-34.868-88.004-38.466-118.447-8.023L127.091,285.52c-9.39,9.389-14.561,21.873-14.561,35.152s5.171,25.764,14.561,35.154   c9.39,9.389,21.874,14.561,35.153,14.561s25.764-5.172,35.153-14.561l204.598-204.599c3.905-3.905,3.905-10.237,0-14.143   c-3.906-3.905-10.236-3.905-14.143,0L183.255,341.684c-5.612,5.611-13.074,8.703-21.011,8.703s-15.398-3.092-21.011-8.703   c-5.612-5.613-8.703-13.074-8.703-21.012s3.091-15.398,8.703-21.01L345.831,95.063c22.645-22.646,63.091-19.046,90.162,8.023   c13.315,13.316,21.383,30.188,22.715,47.511c1.288,16.743-3.93,31.891-14.691,42.652l-72.211,72.212L239.419,397.848   c-20.614,20.613-48.022,31.967-77.175,31.967s-56.561-11.354-77.175-31.967s-31.967-48.021-31.967-77.176   c0-29.152,11.353-56.561,31.967-77.175L245.538,83.028c3.905-3.905,3.905-10.237,0-14.143c-3.905-3.905-10.238-3.905-14.142,0   l-160.47,160.47c-24.391,24.391-37.824,56.822-37.824,91.316c0,34.496,13.433,66.926,37.825,91.318   c24.392,24.391,56.822,37.824,91.317,37.824s66.925-13.434,91.317-37.824l132.387-132.387l72.211-72.212   C473.115,192.436,480.393,171.721,478.649,149.063z" style="fill:#3E3E3F;"/></g><g id="Layer_1"/></svg>