<?xml version="1.0" ?><svg id="Icons" style="enable-background:new 0 0 32 32;" version="1.1" viewBox="0 0 32 32" xml:space="preserve" xmlns="http://www.w3.org/2000/svg" xmlns:xlink="http://www.w3.org/1999/xlink"><path d="M16,2C8.3,2,2,8.3,2,16s6.3,14,14,14s14-6.3,14-14S23.7,2,16,2z M20.7,15.7C20.5,15.9,20.3,16,20,16s-0.5-0.1-0.7-0.3  L17,13.4V22c0,0.6-0.4,1-1,1s-1-0.4-1-1v-8.6l-2.3,2.3c-0.4,0.4-1,0.4-1.4,0s-0.4-1,0-1.4l4-4c0.1-0.1,0.2-0.2,0.3-0.2  c0.2-0.1,0.5-0.1,0.8,0c0.1,0.1,0.2,0.1,0.3,0.2l4,4C21.1,14.7,21.1,15.3,20.7,15.7z"/></svg>