<?xml version="1.0" ?><!DOCTYPE svg  PUBLIC '-//W3C//DTD SVG 1.1//EN'  'http://www.w3.org/Graphics/SVG/1.1/DTD/svg11.dtd'><svg enable-background="new 0 0 96 96" height="96px" id="spinner" version="1.1" viewBox="0 0 96 96" width="96px" xml:space="preserve" xmlns="http://www.w3.org/2000/svg" xmlns:xlink="http://www.w3.org/1999/xlink"><path d="M28,48c0,2.209-1.791,4-4,4H8c-2.209,0-4-1.791-4-4l0,0c0-2.209,1.791-4,4-4h16C26.209,44,28,45.791,28,48L28,48z"/><path d="M68,48c0-2.209,1.791-4,4-4h16c2.209,0,4,1.791,4,4l0,0c0,2.209-1.791,4-4,4H72C69.791,52,68,50.209,68,48L68,48z"/><path d="M52,24c0,2.209-1.791,4-4,4l0,0c-2.209,0-4-1.791-4-4V8c0-2.209,1.791-4,4-4l0,0c2.209,0,4,1.791,4,4V24z"/><path d="M44,72c0-2.209,1.791-4,4-4l0,0c2.209,0,4,1.791,4,4v16c0,2.209-1.791,4-4,4l0,0c-2.209,0-4-1.791-4-4V72z"/><path d="M33.858,62.143c1.562,1.562,1.562,4.095,0,5.656L22.544,79.113c-1.562,1.562-4.095,1.562-5.656,0l0,0  c-1.562-1.562-1.562-4.096,0-5.658L28.2,62.143C29.763,60.58,32.296,60.58,33.858,62.143L33.858,62.143z"/><path d="M62.142,33.858c-1.562-1.562-1.562-4.095,0-5.657l11.314-11.313c1.562-1.562,4.095-1.562,5.656,0l0,0  c1.562,1.562,1.562,4.095,0,5.657L67.8,33.858C66.237,35.42,63.704,35.42,62.142,33.858L62.142,33.858z"/><path d="M33.858,28.201c1.562,1.562,1.562,4.095,0,5.657l0,0c-1.562,1.562-4.096,1.562-5.658,0L16.888,22.544  c-1.562-1.562-1.562-4.095,0-5.657l0,0c1.562-1.562,4.095-1.562,5.656,0L33.858,28.201z"/><path d="M62.142,67.799c-1.562-1.562-1.562-4.095,0-5.656l0,0c1.562-1.562,4.096-1.562,5.658,0l11.312,11.312  c1.562,1.562,1.562,4.096,0,5.658l0,0c-1.562,1.562-4.095,1.562-5.656,0L62.142,67.799z"/></svg>